<?xml version="1.0" encoding="utf-8"?>
<!-- Generator: Adobe Illustrator 24.1.1, SVG Export Plug-In . SVG Version: 6.00 Build 0)  -->
<svg version="1.1" id="Capa_1" xmlns="http://www.w3.org/2000/svg" xmlns:xlink="http://www.w3.org/1999/xlink" x="0px" y="0px"
	 viewBox="0 0 40 40" style="enable-background:new 0 0 40 40;" xml:space="preserve">
<style type="text/css">
	.st0{fill:#C7C7C7;}
	.st1{fill:#FFFFFF;}
	.st2{fill-rule:evenodd;clip-rule:evenodd;fill:#C7C7C7;stroke:#C7C7C7;stroke-width:0.8;}
</style>
<g>
	<circle class="st0" cx="20" cy="20" r="20"/>
</g>
<path class="st1" d="M9,10c-0.6,0-1,0.4-1,1s0.4,1,1,1V10z M11.2,11l1-0.2c-0.1-0.5-0.5-0.8-1-0.8V11z M10.7,13.4
	c0.1,0.5,0.6,0.9,1.2,0.8c0.5-0.1,0.9-0.6,0.8-1.2L10.7,13.4z M13.4,21.1c-0.6,0-1,0.4-1,1s0.4,1,1,1V21.1z M24.6,22.1v1
	c0.4,0,0.7-0.2,0.9-0.6L24.6,22.1z M29,13.2l0.9,0.4c0.2-0.3,0.1-0.7,0-1c-0.2-0.3-0.5-0.5-0.9-0.5V13.2z M11.7,12.2
	c-0.6,0-1,0.4-1,1c0,0.6,0.4,1,1,1V12.2z M12.5,22.2c0.1,0.5,0.6,0.9,1.2,0.8c0.5-0.1,0.9-0.6,0.8-1.2L12.5,22.2z M12.6,13
	c-0.1-0.5-0.6-0.9-1.2-0.8c-0.5,0.1-0.9,0.6-0.8,1.2L12.6,13z M14.1,22.8c0.4-0.4,0.4-1,0-1.4c-0.4-0.4-1-0.4-1.4,0L14.1,22.8z
	 M10.9,24.6l-0.7-0.7L10.9,24.6z M24.6,27.5c0.6,0,1-0.4,1-1c0-0.6-0.4-1-1-1V27.5z M24.6,26.5h-1c0,0.3,0.1,0.5,0.3,0.7L24.6,26.5z
	 M26.8,28.7l-0.7,0.7c0.2,0.2,0.4,0.3,0.7,0.3V28.7z M15.7,28.7l-0.9-0.5c-0.1,0.2-0.1,0.3-0.1,0.5H15.7z M15.7,30.9h-1
	c0,0.2,0,0.3,0.1,0.5L15.7,30.9z M9,12h2.2v-2H9V12z M10.2,11.2l0.4,2.2l2-0.4l-0.4-2.2L10.2,11.2z M13.4,23.1h11.1v-2H13.4V23.1z
	 M25.4,22.5l4.4-8.8l-1.8-0.9l-4.4,8.8L25.4,22.5z M29,12.2H11.7v2H29V12.2z M14.4,21.9L12.6,13l-2,0.4l1.8,8.8L14.4,21.9z
	 M12.7,21.3l-2.5,2.5l1.4,1.4l2.5-2.5L12.7,21.3z M10.2,23.9c-1.3,1.3-0.4,3.6,1.5,3.6v-2c0,0-0.1,0-0.1,0c0,0,0,0,0-0.1
	c0,0,0,0,0-0.1c0,0,0,0,0-0.1L10.2,23.9z M11.7,27.5h12.9v-2H11.7V27.5z M25.6,26.5c0-0.7,0.5-1.2,1.2-1.2v-2
	c-1.8,0-3.2,1.4-3.2,3.2H25.6z M26.8,25.3c0.7,0,1.2,0.5,1.2,1.2h2c0-1.8-1.4-3.2-3.2-3.2V25.3z M28,26.5c0,0.7-0.5,1.2-1.2,1.2v2
	c1.8,0,3.2-1.4,3.2-3.2H28z M27.5,28l-2.2-2.2l-1.4,1.4l2.2,2.2L27.5,28z M16.5,29.2c0.3-0.5,0.8-0.7,1.4-0.6l0.5-1.9
	c-1.4-0.4-2.9,0.2-3.6,1.5L16.5,29.2z M17.9,28.6c0.5,0.1,0.9,0.6,0.9,1.2h2c0-1.5-1-2.7-2.4-3.1L17.9,28.6z M18.8,29.8
	c0,0.5-0.4,1-0.9,1.2l0.5,1.9c1.4-0.4,2.4-1.6,2.4-3.1H18.8z M17.9,31c-0.5,0.1-1.1-0.1-1.4-0.6l-1.7,1c0.7,1.3,2.2,1.9,3.6,1.5
	L17.9,31z M16.7,30.9v-2.2h-2v2.2H16.7z"/>
<circle class="st1" cx="28" cy="12" r="6"/>
<path class="st2" d="M30.5,10.2c-0.2-0.2-0.6-0.2-0.8,0l-2.6,2.9L26,12c-0.2-0.2-0.6-0.2-0.8,0c-0.2,0.2-0.2,0.6,0,0.8l1.6,1.6
	c0.1,0.1,0.3,0.2,0.4,0.2c0,0,0,0,0,0c0.2,0,0.3-0.1,0.4-0.2l3-3.4C30.8,10.8,30.8,10.5,30.5,10.2z"/>
</svg>
